<mxfile host="Electron" modified="2024-01-31T13:37:06.326Z" agent="Mozilla/5.0 (X11; Linux x86_64) AppleWebKit/537.36 (KHTML, like Gecko) draw.io/22.1.21 Chrome/120.0.6099.109 Electron/28.1.0 Safari/537.36" etag="lQhCToCCtw7jKpZ4IQDj" version="22.1.21" type="device">
  <diagram id="C5RBs43oDa-KdzZeNtuy" name="Page-1">
    <mxGraphModel dx="2868" dy="1764" grid="1" gridSize="10" guides="1" tooltips="1" connect="1" arrows="1" fold="1" page="1" pageScale="1" pageWidth="827" pageHeight="1169" math="0" shadow="0">
      <root>
        <mxCell id="WIyWlLk6GJQsqaUBKTNV-0" />
        <mxCell id="WIyWlLk6GJQsqaUBKTNV-1" parent="WIyWlLk6GJQsqaUBKTNV-0" />
        <mxCell id="nWd9DYiu0VlQMOzA8pWd-0" value="Renderer.FloodRenderer.FloodRenderer.render()" style="swimlane;whiteSpace=wrap;html=1;startSize=30;" parent="WIyWlLk6GJQsqaUBKTNV-1" vertex="1">
          <mxGeometry x="130" y="50" width="540" height="1030" as="geometry">
            <mxRectangle x="80" y="890" width="250" height="30" as="alternateBounds" />
          </mxGeometry>
        </mxCell>
        <mxCell id="XBrvubIOwSxENSqEJ7tH-195" style="edgeStyle=orthogonalEdgeStyle;rounded=0;orthogonalLoop=1;jettySize=auto;html=1;exitX=0.5;exitY=1;exitDx=0;exitDy=0;" parent="nWd9DYiu0VlQMOzA8pWd-0" source="nWd9DYiu0VlQMOzA8pWd-38" target="XBrvubIOwSxENSqEJ7tH-194" edge="1">
          <mxGeometry relative="1" as="geometry" />
        </mxCell>
        <mxCell id="nWd9DYiu0VlQMOzA8pWd-38" value="Create mesh" style="rounded=1;whiteSpace=wrap;html=1;fontSize=12;glass=0;strokeWidth=1;shadow=0;" parent="nWd9DYiu0VlQMOzA8pWd-0" vertex="1">
          <mxGeometry x="241.25" y="80" width="120" height="30" as="geometry" />
        </mxCell>
        <mxCell id="XBrvubIOwSxENSqEJ7tH-194" value="for each line" style="swimlane;whiteSpace=wrap;html=1;startSize=30;" parent="nWd9DYiu0VlQMOzA8pWd-0" vertex="1">
          <mxGeometry x="100" y="160" width="402.5" height="720" as="geometry" />
        </mxCell>
        <mxCell id="wWdM7DBpCx2sjob10kw1-0" value="for each column" style="swimlane;whiteSpace=wrap;html=1;startSize=30;" vertex="1" parent="XBrvubIOwSxENSqEJ7tH-194">
          <mxGeometry x="10" y="50" width="380" height="660" as="geometry" />
        </mxCell>
        <mxCell id="wWdM7DBpCx2sjob10kw1-2" style="edgeStyle=orthogonalEdgeStyle;rounded=0;orthogonalLoop=1;jettySize=auto;html=1;exitX=1;exitY=0.5;exitDx=0;exitDy=0;" edge="1" parent="wWdM7DBpCx2sjob10kw1-0" source="wWdM7DBpCx2sjob10kw1-1">
          <mxGeometry relative="1" as="geometry">
            <mxPoint x="330.03" y="642.97" as="targetPoint" />
            <mxPoint x="200.00007575757584" y="0.0003030303030016057" as="sourcePoint" />
          </mxGeometry>
        </mxCell>
        <mxCell id="wWdM7DBpCx2sjob10kw1-3" value="No" style="edgeLabel;html=1;align=center;verticalAlign=middle;resizable=0;points=[];" vertex="1" connectable="0" parent="wWdM7DBpCx2sjob10kw1-2">
          <mxGeometry x="-0.6875" y="1" relative="1" as="geometry">
            <mxPoint as="offset" />
          </mxGeometry>
        </mxCell>
        <mxCell id="wWdM7DBpCx2sjob10kw1-5" style="edgeStyle=orthogonalEdgeStyle;rounded=0;orthogonalLoop=1;jettySize=auto;html=1;exitX=0.5;exitY=1;exitDx=0;exitDy=0;entryX=0.5;entryY=0;entryDx=0;entryDy=0;" edge="1" parent="wWdM7DBpCx2sjob10kw1-0" source="wWdM7DBpCx2sjob10kw1-1">
          <mxGeometry relative="1" as="geometry">
            <mxPoint x="180.6300000000001" y="190" as="targetPoint" />
          </mxGeometry>
        </mxCell>
        <mxCell id="wWdM7DBpCx2sjob10kw1-25" value="Yes" style="edgeLabel;html=1;align=center;verticalAlign=middle;resizable=0;points=[];" vertex="1" connectable="0" parent="wWdM7DBpCx2sjob10kw1-5">
          <mxGeometry x="-0.2301" y="-2" relative="1" as="geometry">
            <mxPoint as="offset" />
          </mxGeometry>
        </mxCell>
        <mxCell id="wWdM7DBpCx2sjob10kw1-1" value="current point&amp;nbsp;&lt;br&gt;is flooded ?" style="rhombus;whiteSpace=wrap;html=1;" vertex="1" parent="wWdM7DBpCx2sjob10kw1-0">
          <mxGeometry x="131.25" y="50" width="98.75" height="100" as="geometry" />
        </mxCell>
        <mxCell id="wWdM7DBpCx2sjob10kw1-23" style="edgeStyle=orthogonalEdgeStyle;rounded=0;orthogonalLoop=1;jettySize=auto;html=1;exitX=0.5;exitY=1;exitDx=0;exitDy=0;entryX=0.5;entryY=0;entryDx=0;entryDy=0;" edge="1" parent="wWdM7DBpCx2sjob10kw1-0" source="wWdM7DBpCx2sjob10kw1-6" target="wWdM7DBpCx2sjob10kw1-21">
          <mxGeometry relative="1" as="geometry" />
        </mxCell>
        <mxCell id="wWdM7DBpCx2sjob10kw1-6" value="for each corner of the cell" style="swimlane;whiteSpace=wrap;html=1;startSize=30;" vertex="1" parent="wWdM7DBpCx2sjob10kw1-0">
          <mxGeometry x="75.63" y="190" width="210" height="340" as="geometry" />
        </mxCell>
        <mxCell id="wWdM7DBpCx2sjob10kw1-17" style="edgeStyle=orthogonalEdgeStyle;rounded=0;orthogonalLoop=1;jettySize=auto;html=1;exitX=0.5;exitY=1;exitDx=0;exitDy=0;entryX=0.5;entryY=0;entryDx=0;entryDy=0;" edge="1" parent="wWdM7DBpCx2sjob10kw1-6" source="wWdM7DBpCx2sjob10kw1-12" target="wWdM7DBpCx2sjob10kw1-13">
          <mxGeometry relative="1" as="geometry" />
        </mxCell>
        <mxCell id="wWdM7DBpCx2sjob10kw1-12" value="Get point coords in scene basis" style="rounded=1;whiteSpace=wrap;html=1;fontSize=12;glass=0;strokeWidth=1;shadow=0;" vertex="1" parent="wWdM7DBpCx2sjob10kw1-6">
          <mxGeometry x="45.00000000000001" y="50" width="120" height="30" as="geometry" />
        </mxCell>
        <mxCell id="wWdM7DBpCx2sjob10kw1-18" style="edgeStyle=orthogonalEdgeStyle;rounded=0;orthogonalLoop=1;jettySize=auto;html=1;exitX=0.5;exitY=1;exitDx=0;exitDy=0;entryX=0.5;entryY=0;entryDx=0;entryDy=0;" edge="1" parent="wWdM7DBpCx2sjob10kw1-6" source="wWdM7DBpCx2sjob10kw1-13" target="wWdM7DBpCx2sjob10kw1-14">
          <mxGeometry relative="1" as="geometry" />
        </mxCell>
        <mxCell id="wWdM7DBpCx2sjob10kw1-13" value="Get Z coord of the top face point" style="rounded=1;whiteSpace=wrap;html=1;fontSize=12;glass=0;strokeWidth=1;shadow=0;" vertex="1" parent="wWdM7DBpCx2sjob10kw1-6">
          <mxGeometry x="45.00000000000001" y="100" width="120" height="30" as="geometry" />
        </mxCell>
        <mxCell id="wWdM7DBpCx2sjob10kw1-19" style="edgeStyle=orthogonalEdgeStyle;rounded=0;orthogonalLoop=1;jettySize=auto;html=1;exitX=0.5;exitY=1;exitDx=0;exitDy=0;entryX=0.5;entryY=0;entryDx=0;entryDy=0;" edge="1" parent="wWdM7DBpCx2sjob10kw1-6" source="wWdM7DBpCx2sjob10kw1-14" target="wWdM7DBpCx2sjob10kw1-15">
          <mxGeometry relative="1" as="geometry" />
        </mxCell>
        <mxCell id="wWdM7DBpCx2sjob10kw1-14" value="Cache/retrieve previously used top face point" style="rounded=1;whiteSpace=wrap;html=1;fontSize=12;glass=0;strokeWidth=1;shadow=0;" vertex="1" parent="wWdM7DBpCx2sjob10kw1-6">
          <mxGeometry x="45" y="150" width="120" height="50" as="geometry" />
        </mxCell>
        <mxCell id="wWdM7DBpCx2sjob10kw1-20" style="edgeStyle=orthogonalEdgeStyle;rounded=0;orthogonalLoop=1;jettySize=auto;html=1;exitX=0.5;exitY=1;exitDx=0;exitDy=0;entryX=0.5;entryY=0;entryDx=0;entryDy=0;" edge="1" parent="wWdM7DBpCx2sjob10kw1-6" source="wWdM7DBpCx2sjob10kw1-15" target="wWdM7DBpCx2sjob10kw1-16">
          <mxGeometry relative="1" as="geometry" />
        </mxCell>
        <mxCell id="wWdM7DBpCx2sjob10kw1-15" value="Get Z coord of the&amp;nbsp;&lt;br&gt;bottom face point" style="rounded=1;whiteSpace=wrap;html=1;fontSize=12;glass=0;strokeWidth=1;shadow=0;" vertex="1" parent="wWdM7DBpCx2sjob10kw1-6">
          <mxGeometry x="45" y="220" width="120" height="30" as="geometry" />
        </mxCell>
        <mxCell id="wWdM7DBpCx2sjob10kw1-16" value="Cache/retrieve previously used&amp;nbsp;&lt;br&gt;bottom face point" style="rounded=1;whiteSpace=wrap;html=1;fontSize=12;glass=0;strokeWidth=1;shadow=0;" vertex="1" parent="wWdM7DBpCx2sjob10kw1-6">
          <mxGeometry x="45" y="270" width="120" height="50" as="geometry" />
        </mxCell>
        <mxCell id="wWdM7DBpCx2sjob10kw1-24" style="edgeStyle=orthogonalEdgeStyle;rounded=0;orthogonalLoop=1;jettySize=auto;html=1;exitX=0.5;exitY=1;exitDx=0;exitDy=0;entryX=0.5;entryY=0;entryDx=0;entryDy=0;" edge="1" parent="wWdM7DBpCx2sjob10kw1-0" source="wWdM7DBpCx2sjob10kw1-21" target="wWdM7DBpCx2sjob10kw1-22">
          <mxGeometry relative="1" as="geometry" />
        </mxCell>
        <mxCell id="wWdM7DBpCx2sjob10kw1-21" value="Add top cell to mesh" style="rounded=1;whiteSpace=wrap;html=1;fontSize=12;glass=0;strokeWidth=1;shadow=0;" vertex="1" parent="wWdM7DBpCx2sjob10kw1-0">
          <mxGeometry x="120.63" y="560" width="120" height="30" as="geometry" />
        </mxCell>
        <mxCell id="wWdM7DBpCx2sjob10kw1-22" value="Add bottom cell to mesh" style="rounded=1;whiteSpace=wrap;html=1;fontSize=12;glass=0;strokeWidth=1;shadow=0;" vertex="1" parent="wWdM7DBpCx2sjob10kw1-0">
          <mxGeometry x="120.62" y="610" width="120" height="30" as="geometry" />
        </mxCell>
        <mxCell id="wWdM7DBpCx2sjob10kw1-26" style="edgeStyle=orthogonalEdgeStyle;rounded=0;orthogonalLoop=1;jettySize=auto;html=1;exitX=0.5;exitY=1;exitDx=0;exitDy=0;entryX=0.5;entryY=0;entryDx=0;entryDy=0;" edge="1" parent="nWd9DYiu0VlQMOzA8pWd-0" target="wWdM7DBpCx2sjob10kw1-28">
          <mxGeometry relative="1" as="geometry">
            <mxPoint x="290" y="880" as="sourcePoint" />
          </mxGeometry>
        </mxCell>
        <mxCell id="wWdM7DBpCx2sjob10kw1-28" value="Create object from mesh" style="rounded=1;whiteSpace=wrap;html=1;fontSize=12;glass=0;strokeWidth=1;shadow=0;" vertex="1" parent="nWd9DYiu0VlQMOzA8pWd-0">
          <mxGeometry x="230" y="920" width="120" height="30" as="geometry" />
        </mxCell>
        <mxCell id="wWdM7DBpCx2sjob10kw1-29" value="Add GeometryNodes modifier to object" style="rounded=1;whiteSpace=wrap;html=1;fontSize=12;glass=0;strokeWidth=1;shadow=0;" vertex="1" parent="nWd9DYiu0VlQMOzA8pWd-0">
          <mxGeometry x="230" y="980" width="120" height="30" as="geometry" />
        </mxCell>
        <mxCell id="wWdM7DBpCx2sjob10kw1-27" style="edgeStyle=orthogonalEdgeStyle;rounded=0;orthogonalLoop=1;jettySize=auto;html=1;exitX=0.5;exitY=1;exitDx=0;exitDy=0;entryX=0.5;entryY=0;entryDx=0;entryDy=0;" edge="1" parent="nWd9DYiu0VlQMOzA8pWd-0" source="wWdM7DBpCx2sjob10kw1-28" target="wWdM7DBpCx2sjob10kw1-29">
          <mxGeometry relative="1" as="geometry" />
        </mxCell>
      </root>
    </mxGraphModel>
  </diagram>
</mxfile>
